# xmcd
#
# Track frame offsets:
#	150
#	13992
#	16545
#	21730
#	31427
#	35425
#	45205
#	57472
#	72837
#	86852
#	91212
#	95725
#	126450
#	130712
#	134970
#	139587
#	143747
#	148515
#	152992
#	157520
#	162047
#	166257
#	170765
#	247832
#
# Disc length: 3582 seconds
#
# Revision: 1
# Processed by: cddbd v1.4PL0 Copyright (c) Steve Scherf et al.
# Submitted via: MusicWizard 6.0.2
#
DISCID=490dfc18
DTITLE=Dean Martin - Lay Some Happiness On Me   Vol. 6
DYEAR=1900
DGENRE=Vocal
TTITLE0=La Is My Home
TTITLE1=A Wonderful Time
TTITLE2=I'm Not The Marrying Kind
TTITLE3=Five Card Stud (Soundtrack Version 1)
TTITLE4=Five Card Stud (Soundtrack Version 2)
TTITLE5=Baker Knight - I'm Gonna Sit Right Down And Write Myself A Letter
TTITLE6=Baker Knight - Come Live With Me
TTITLE7=Baker Knight - Smoke
TTITLE8=Baker Knight - Bidin' My Time
TTITLE9=Radio Adversting - Murder's Row
TTITLE10=Radio Adversting - Murdere's Row - The Silencers
TTITLE11=Radio Feature - Texas Across The River
TTITLE12=Radio Adversting - Rough Night In Jericho (1)
TTITLE13=Radio Adversting - Rough Night In Jericho (2)
TTITLE14=Radio Adversting - The Ambushers (1)
TTITLE15=Radio Adversting - The Ambushers (2)
TTITLE16=Radio Adversting - Something Big (1)
TTITLE17=Radio Adversting - Something Big (2
TTITLE18=Radio Adversting - Something Big (3)
TTITLE19=Radio Adversting - Something Big (4)
TTITLE20=Radio Adversting - Airport (1)
TTITLE21=Radio Adversting - Airport (2)
TTITLE22=Radio Feature - Airport
TTITLE23=Interview - Airport
EXTD=
EXTT0=
EXTT1=
EXTT2=
EXTT3=
EXTT4=
EXTT5=
EXTT6=
EXTT7=
EXTT8=
EXTT9=
EXTT10=
EXTT11=
EXTT12=
EXTT13=
EXTT14=
EXTT15=
EXTT16=
EXTT17=
EXTT18=
EXTT19=
EXTT20=
EXTT21=
EXTT22=
EXTT23=
PLAYORDER=
